<svg xmlns="http://www.w3.org/2000/svg" width="66.286" height="55.861" viewBox="0 0 66.286 55.861">
  <g id="Call_Record_Folder_Icon" transform="translate(10139.136 -3816.137)">
    <g id="Group_18249" data-name="Group 18249" transform="translate(-11942 3323)">
      <g id="Group_18206" data-name="Group 18206" transform="translate(1802.864 493.137)">
        <g id="folder_1_" data-name="folder (1)" transform="translate(0 0)">
          <path id="Path_7604" data-name="Path 7604" d="M29.166,41.887V39.478a2.651,2.651,0,0,0-2.651-2.652H2.651A2.651,2.651,0,0,0,0,39.478V55.084H66.286V46.306a2.651,2.651,0,0,0-2.651-2.652h-32.7A1.768,1.768,0,0,1,29.166,41.887Z" transform="translate(0 -36.827)" fill="#f6c358"/>
          <path id="Path_7605" data-name="Path 7605" d="M62.751,167.425H3.535A3.535,3.535,0,0,1,0,163.889v-34.7H29.265a2.651,2.651,0,0,0,1.959-.865l3.257-3.573a2.651,2.651,0,0,1,1.959-.865H66.286v40A3.535,3.535,0,0,1,62.751,167.425Z" transform="translate(0 -111.564)" fill="#fcd462"/>
        </g>
        <g id="_11" data-name="11" transform="translate(-76.341 -224.336)">
          <path id="Path_7640" data-name="Path 7640" d="M113.89,273.887c-.981-.183-1.981-.294-2.936-.569-.8-.229-1.53-.673-2.314-.974a13.287,13.287,0,0,1-2.864-1.628,36.837,36.837,0,0,1-2.9-2.334c-.68-.6-1.295-1.281-1.922-1.942a20.5,20.5,0,0,1-2.687-3.419,24.088,24.088,0,0,1-1.667-3.178,16.283,16.283,0,0,1-.922-2.936,5.248,5.248,0,0,1,.15-3.334,13.653,13.653,0,0,1,1-1.883,9.611,9.611,0,0,1,1.746-1.935,1.874,1.874,0,0,1,1.824-.418,3.42,3.42,0,0,1,1.916,1.386,12.354,12.354,0,0,1,1.706,3.9c.111.445.2.889.281,1.34.092.477-.059.752-.536,1.046a10.22,10.22,0,0,0-2.145,1.706,1.229,1.229,0,0,0-.02,1.236,18.027,18.027,0,0,0,2.295,3.341,15.818,15.818,0,0,0,2.962,2.759c.405.288.758.654,1.183.9a6.019,6.019,0,0,0,1.935.928.683.683,0,0,0,.673-.262c.432-.484.843-.987,1.255-1.491.235-.294.445-.615.68-.9a.7.7,0,0,1,.876-.183c.32.111.66.177.987.275a18.28,18.28,0,0,1,2.38.745,6.567,6.567,0,0,1,2.4,1.635A2.872,2.872,0,0,1,120,270a.812.812,0,0,1-.163.327,6.669,6.669,0,0,1-2.04,1.994,10.071,10.071,0,0,1-1.484.961,4.99,4.99,0,0,1-2.046.5h-.36A.469.469,0,0,1,113.89,273.887Z" fill="#c79431"/>
          <path id="Path_7641" data-name="Path 7641" d="M437.126,261.412a2.593,2.593,0,0,1-2.556-2.668,2.629,2.629,0,0,1,2.877-2.556,2.618,2.618,0,0,1-.32,5.224Z" transform="translate(-316.921 -6.472)" fill="#c79431"/>
          <path id="Path_7642" data-name="Path 7642" d="M277.288,269.827c.3.424.612.879.934,1.319.118.157.353.29.157.526-.11.133-.66.008-.777-.157-.3-.416-.6-.84-.9-1.264-.055-.071-.1-.165-.173-.2-.133-.071-.314-.173-.408-.133s-.157.251-.173.393a4.157,4.157,0,0,0,.016.7c.047.644-.031.722-.707.675a1.22,1.22,0,0,1-.055-.243c0-1.28.008-2.56,0-3.839,0-.267.071-.338.338-.322.557.031,1.123.016,1.68.055a.924.924,0,0,1,.887.738,1.148,1.148,0,0,1-.338,1.342A5.93,5.93,0,0,0,277.288,269.827Zm-1.35-1.24c0,.816.078.895.785.754a.815.815,0,0,0,.683-.926c-.039-.4-.432-.652-1.138-.6-.487.039-.275.463-.33.73Z" transform="translate(-168.862 -17.206)" fill="#c79431"/>
          <path id="Path_7643" data-name="Path 7643" d="M366.785,269.581c-.118.173-.2.4-.361.5a2.09,2.09,0,0,1-1.924.2,2.041,2.041,0,0,1-1.366-2.638,2.685,2.685,0,0,1,.4-1.028,2.265,2.265,0,0,1,2.724-.55c.071.031.173.039.2.094a1.164,1.164,0,0,1,.2.471c0,.063-.243.165-.385.188a.515.515,0,0,1-.322-.11,1.4,1.4,0,0,0-2.1,1.107,1.71,1.71,0,0,0,.463,1.578,1.531,1.531,0,0,0,1.8.165,3.026,3.026,0,0,1,.534-.173C366.691,269.456,366.738,269.519,366.785,269.581Z" transform="translate(-249.808 -15.877)" fill="#c79431"/>
          <path id="Path_7644" data-name="Path 7644" d="M323.664,270.105a11.162,11.162,0,0,0-.055,1.138c0,.086.2.236.306.236.471.024.942.024,1.413.008.259-.008.369.1.369.338,0,.251-.157.283-.369.283-.683-.008-1.358-.008-2.041,0-.243,0-.361-.071-.361-.33.008-.974,0-1.955-.008-2.929,0-.283-.016-.573-.024-.856-.008-.2.086-.306.306-.3.707.008,1.405,0,2.112,0,.188,0,.377-.008.377.267s-.22.251-.393.251c-.448.008-.887,0-1.335-.016-.228-.008-.345.079-.345.314v.078c0,1.17-.071,1,.958,1.013a1.248,1.248,0,0,1,.385.008c.11.039.181.157.275.236-.086.086-.165.243-.251.251C324.575,270.121,324.159,270.105,323.664,270.105Z" transform="translate(-212.812 -17.594)" fill="#c79431"/>
        </g>
      </g>
    </g>
  </g>
</svg>
