<svg xmlns="http://www.w3.org/2000/svg" width="66.286" height="55.861" viewBox="0 0 66.286 55.861">
  <g id="Labs_Folder_Icon" data-name="Labs Folder Icon" transform="translate(13389 -3639.137)">
    <g id="Labs_Folder_Icon-2" data-name="Labs Folder Icon">
      <path id="Path_7604" data-name="Path 7604" d="M29.166,41.887V39.478a2.651,2.651,0,0,0-2.651-2.652H2.651A2.651,2.651,0,0,0,0,39.478V55.084H66.286V46.306a2.651,2.651,0,0,0-2.651-2.652h-32.7A1.768,1.768,0,0,1,29.166,41.887Z" transform="translate(-13389 3602.311)" fill="#f6c358"/>
      <path id="Path_7605" data-name="Path 7605" d="M62.751,167.425H3.535A3.535,3.535,0,0,1,0,163.889v-34.7H29.265a2.651,2.651,0,0,0,1.959-.865l3.257-3.573a2.651,2.651,0,0,1,1.959-.865H66.286v40A3.535,3.535,0,0,1,62.751,167.425Z" transform="translate(-13389 3527.574)" fill="#fcd462"/>
      <path id="Path_478" data-name="Path 478" d="M164.146,592.55a.549.549,0,0,0,.548-.548v-.255a.549.549,0,0,0-.548-.548H155a.549.549,0,0,0-.548.548V592a.549.549,0,0,0,.548.548Z" transform="translate(-13519.361 3088.177)" fill="#925300"/>
      <path id="Path_479" data-name="Path 479" d="M222.282,6.25A9.346,9.346,0,0,0,219.3,4.242l-.005,0a.814.814,0,0,0-1,.309l-.635.989a2.032,2.032,0,0,0-.5-.1c-.052,0-.107-.005-.162-.005a2.054,2.054,0,0,0-.433.047l1.12-1.747.348-.542a.82.82,0,0,0-.249-1.134L214.791.129a.826.826,0,0,0-1.137.249L208.448,8.5A.82.82,0,0,0,208.7,9.63l.567.364-.257.4-.257.4-.162.252a.82.82,0,0,0,.249,1.134l.488.312a.82.82,0,0,0,1.134-.249L210.62,12l.257-.4.257-.4.559.359a.826.826,0,0,0,1.137-.249l2.136-3.333a1.983,1.983,0,0,0,.214.556,2.092,2.092,0,0,0,1.882,1.068,2.088,2.088,0,0,0,1.9-2.788,6.905,6.905,0,0,1-1.274,12.659.821.821,0,0,1-.244.036h-2.7a.821.821,0,0,1-.822-.822v-.184H210v3.7c.085-.005.173-.008.257-.008h11.783A2,2,0,0,0,223,18.69a9.348,9.348,0,0,0-.715-12.44ZM217,8.263a.746.746,0,0,1-.723-.559.735.735,0,0,1-.025-.192.748.748,0,0,1,.622-.737A.662.662,0,0,1,217,6.765a.749.749,0,1,1,0,1.5Zm4.982,12.585a.682.682,0,0,1-.29.063.7.7,0,0,1-.7-.7.7.7,0,0,1,.7-.7.682.682,0,0,1,.29.063.823.823,0,0,1,.134.079.7.7,0,0,1,.277.556A.709.709,0,0,1,221.981,20.848Z" transform="translate(-13571.754 3663.185)" fill="#925300"/>
      <path id="Path_480" data-name="Path 480" d="M156.152,845.008a3.459,3.459,0,0,0-3.2,3.451h14.357a.821.821,0,0,0,.822-.822V845h-11.72C156.322,845,156.237,845,156.152,845.008Z" transform="translate(-13517.902 2841.328)" fill="#925300"/>
    </g>
  </g>
</svg>
