<svg xmlns="http://www.w3.org/2000/svg" width="66.286" height="55.861" viewBox="0 0 66.286 55.861">
  <g id="Prescription_Folder_Icon" data-name="Prescription Folder Icon" transform="translate(-1735.864 -384.137)">
    <g id="Group_18203" data-name="Group 18203" transform="translate(1735.864 384.137)">
      <g id="folder_1_" data-name="folder (1)" transform="translate(0 0)">
        <path id="Path_7604" data-name="Path 7604" d="M29.166,41.887V39.478a2.651,2.651,0,0,0-2.651-2.652H2.651A2.651,2.651,0,0,0,0,39.478V55.084H66.286V46.306a2.651,2.651,0,0,0-2.651-2.652h-32.7A1.768,1.768,0,0,1,29.166,41.887Z" transform="translate(0 -36.827)" fill="#f6c358"/>
        <path id="Path_7605" data-name="Path 7605" d="M62.751,167.425H3.535A3.535,3.535,0,0,1,0,163.889v-34.7H29.265a2.651,2.651,0,0,0,1.959-.865l3.257-3.573a2.651,2.651,0,0,1,1.959-.865H66.286v40A3.535,3.535,0,0,1,62.751,167.425Z" transform="translate(0 -111.564)" fill="#fcd462"/>
      </g>
    </g>
    <path id="medical-prescription-pharmaceutical-drug-pharmacy-symbol-clip-art-rx-logo-image" d="M40.09,148.639c-.391.589-.771,1.154-1.142,1.719-.476.714-.948,1.433-1.429,2.147a.288.288,0,0,1-.2.125c-1.485.008-2.974,0-4.459,0a.812.812,0,0,1-.1-.012c.246-.363.48-.706.71-1.049q1.695-2.482,3.39-4.956a.323.323,0,0,0,0-.436q-2.3-3.432-4.581-6.877a1.172,1.172,0,0,0-1-.573c-.327-.016-.654,0-1,0v6.752H25.4V129.005c.048,0,.1-.016.149-.016,2.877,0,5.759,0,8.636.012a11,11,0,0,1,2.833.315,3.758,3.758,0,0,1,2.817,2.861,4.887,4.887,0,0,1-.266,3.438,4.447,4.447,0,0,1-3.063,2.405l-.537.141c1.5,1.929,2.595,4.1,4.129,6.013l.815-1.255c.448-.686.892-1.376,1.344-2.058a.31.31,0,0,1,.218-.129c1.505-.008,3.015,0,4.52,0a.977.977,0,0,1,.113.012c-.226.323-.436.63-.65.932q-1.61,2.288-3.229,4.576c-.093.133-.052.21.02.315q2.016,2.93,4.028,5.864c.036.052.073.109.121.19-.085,0-.149.012-.21.012-1.546,0-3.1,0-4.641,0a.293.293,0,0,1-.3-.174C41.531,151.2,40.816,149.935,40.09,148.639Zm-9.8-12.894a.514.514,0,0,0,.069.02c.847-.012,1.695,0,2.538-.052a4.592,4.592,0,0,0,1.251-.27,1.6,1.6,0,0,0,.956-1.751,1.414,1.414,0,0,0-.843-1.255,3.394,3.394,0,0,0-1.086-.246c-.92-.036-1.84-.02-2.76-.024-.036,0-.077.012-.125.016Z" transform="translate(1733.102 281.721)" fill="#925300"/>
  </g>
</svg>
