<svg id="Questions_Folder_Icon" data-name="Questions Folder Icon" xmlns="http://www.w3.org/2000/svg" width="66.286" height="55.861" viewBox="0 0 66.286 55.861">
  <g id="folder_1_" data-name="folder (1)" transform="translate(0 0)">
    <path id="Path_7604" data-name="Path 7604" d="M29.166,41.887V39.478a2.651,2.651,0,0,0-2.651-2.652H2.651A2.651,2.651,0,0,0,0,39.478V55.084H66.286V46.306a2.651,2.651,0,0,0-2.651-2.652h-32.7A1.768,1.768,0,0,1,29.166,41.887Z" transform="translate(0 -36.827)" fill="#f6c358"/>
    <path id="Path_7605" data-name="Path 7605" d="M62.751,167.425H3.535A3.535,3.535,0,0,1,0,163.889v-34.7H29.265a2.651,2.651,0,0,0,1.959-.865l3.257-3.573a2.651,2.651,0,0,1,1.959-.865H66.286v40A3.535,3.535,0,0,1,62.751,167.425Z" transform="translate(0 -111.564)" fill="#fcd462"/>
  </g>
  <g id="question-mark" transform="translate(24.136 25.863)">
    <path id="Path_7617" data-name="Path 7617" d="M18.041,25.083a7.041,7.041,0,1,1,7.041-7.041A7.05,7.05,0,0,1,18.041,25.083Zm0-13A5.958,5.958,0,1,0,24,18.041,5.965,5.965,0,0,0,18.041,12.083Z" transform="translate(0.916 0.916)" fill="#925300" stroke="#c79431" stroke-width="0.5"/>
    <path id="Path_7618" data-name="Path 7618" d="M17.708,20.583a.542.542,0,0,1-.542-.542v-.285a3.425,3.425,0,0,1,1.5-2.736,1.625,1.625,0,1,0-2.585-1.312.542.542,0,1,1-1.083,0,2.708,2.708,0,1,1,4.308,2.186,2.377,2.377,0,0,0-1.058,1.862v.285a.542.542,0,0,1-.542.542Z" transform="translate(1.249 1.083)" fill="#925300" stroke="#c79431" stroke-width="0.5"/>
    <path id="Path_7619" data-name="Path 7619" d="M17.542,22.083A.555.555,0,0,1,17,21.541a.44.44,0,0,1,.043-.206.385.385,0,0,1,.119-.173.374.374,0,0,1,.173-.118.538.538,0,0,1,.585.118.508.508,0,0,1,.162.379.462.462,0,0,1-.043.2.379.379,0,0,1-.119.173.505.505,0,0,1-.379.164Z" transform="translate(1.416 1.749)" fill="#925300" stroke="#c79431" stroke-width="0.5"/>
    <path id="Path_7620" data-name="Path 7620" d="M10.291,22.5H2.708A2.711,2.711,0,0,1,0,19.791V5.708A2.711,2.711,0,0,1,2.708,3H4.875a.542.542,0,1,1,0,1.083H2.708A1.627,1.627,0,0,0,1.083,5.708V19.791a1.627,1.627,0,0,0,1.625,1.625h7.583a.542.542,0,1,1,0,1.083Z" transform="translate(0 0.25)" fill="#925300" stroke="#c79431" stroke-width="0.5"/>
    <path id="Path_7621" data-name="Path 7621" d="M12.125,6.5h-6.5A1.627,1.627,0,0,1,4,4.875V2.708a.542.542,0,0,1,.542-.542H6.221a2.709,2.709,0,0,1,5.308,0h1.679a.542.542,0,0,1,.542.542V4.875A1.627,1.627,0,0,1,12.125,6.5ZM5.083,3.25V4.875a.543.543,0,0,0,.542.542h6.5a.543.543,0,0,0,.542-.542V3.25H11.041a.542.542,0,0,1-.542-.542,1.625,1.625,0,0,0-3.25,0,.542.542,0,0,1-.542.542Z" transform="translate(0.333)" fill="#925300" stroke="#c79431" stroke-width="0.5"/>
    <path id="Path_7622" data-name="Path 7622" d="M14.375,9.083H3.542A.542.542,0,1,1,3.542,8H14.375a.542.542,0,1,1,0,1.083Z" transform="translate(0.25 0.666)" fill="#925300" stroke="#c79431" stroke-width="0.5"/>
    <path id="Path_7623" data-name="Path 7623" d="M11.125,12.083H3.542a.542.542,0,1,1,0-1.083h7.583a.542.542,0,1,1,0,1.083Z" transform="translate(0.25 0.916)" fill="#925300" stroke="#c79431" stroke-width="0.5"/>
    <path id="Path_7624" data-name="Path 7624" d="M8.958,15.083H3.542a.542.542,0,1,1,0-1.083H8.958a.542.542,0,1,1,0,1.083Z" transform="translate(0.25 1.166)" fill="#925300" stroke="#c79431" stroke-width="0.5"/>
    <path id="Path_7625" data-name="Path 7625" d="M16.875,9.5a.542.542,0,0,1-.542-.542V5.708a1.627,1.627,0,0,0-1.625-1.625H12.542a.542.542,0,1,1,0-1.083h2.167a2.711,2.711,0,0,1,2.708,2.708v3.25A.542.542,0,0,1,16.875,9.5Z" transform="translate(1 0.25)" fill="#925300" stroke="#c79431" stroke-width="0.5"/>
  </g>
</svg>
