<svg xmlns="http://www.w3.org/2000/svg" width="66.286" height="55.861" viewBox="0 0 66.286 55.861">
  <g id="Sugar_Chart_Folder_Icon" data-name="Sugar Chart Folder Icon" transform="translate(-1833 -384.137)">
    <g id="Group_18219" data-name="Group 18219">
      <g id="Group_18204" data-name="Group 18204" transform="translate(1833 384.137)">
        <g id="folder_1_" data-name="folder (1)" transform="translate(0 0)">
          <path id="Path_7604" data-name="Path 7604" d="M29.166,41.887V39.478a2.651,2.651,0,0,0-2.651-2.652H2.651A2.651,2.651,0,0,0,0,39.478V55.084H66.286V46.306a2.651,2.651,0,0,0-2.651-2.652h-32.7A1.768,1.768,0,0,1,29.166,41.887Z" transform="translate(0 -36.827)" fill="#f6c358"/>
          <path id="Path_7605" data-name="Path 7605" d="M62.751,167.425H3.535A3.535,3.535,0,0,1,0,163.889v-34.7H29.265a2.651,2.651,0,0,0,1.959-.865l3.257-3.573a2.651,2.651,0,0,1,1.959-.865H66.286v40A3.535,3.535,0,0,1,62.751,167.425Z" transform="translate(0 -111.564)" fill="#fcd462"/>
        </g>
      </g>
      <g id="orderables-icons-09" transform="translate(1843 403.117)">
        <g id="Group_17865" data-name="Group 17865" transform="translate(9 4.177)">
          <g id="Group_17862" data-name="Group 17862">
            <path id="Path_7421" data-name="Path 7421" d="M23.344,32.244a.524.524,0,0,1,0-1.048h1.083a1.469,1.469,0,0,0,1.525-1.6,1.5,1.5,0,0,0-.8-1.269.678.678,0,0,1-.408-.582c0-.116,0-.489.687-.617.14-.023.268-.047.3-.047l.14-.012.1-.058a1.769,1.769,0,0,0,.792-1.432,1.539,1.539,0,0,0-.617-1.211l-.116-.082-.256-.047c-.116-.023-.221-.035-.3-.058a.586.586,0,0,1-.524-.571c0-.093.035-.571.768-.605a1.461,1.461,0,0,0,1.316-1.5,1.531,1.531,0,0,0-1.141-1.467c-.012,0-.035-.012-.047-.012l-.093-.035h-.5a.524.524,0,1,1,0-1.048h9.2a1.514,1.514,0,0,0,0-3.027H20.782a2.909,2.909,0,0,1-3.027-2.55,1.477,1.477,0,0,1,.1-.605c0-.012.012-.023.012-.035L19.816,8.5l.012-.035a1.73,1.73,0,0,0,.07-.594,1.711,1.711,0,0,0-1.6-1.56H18.22a1.637,1.637,0,0,0-1.118.431l-.047.047-.594.838-3.307,5.286a13.928,13.928,0,0,0-2.108,7.359V26.7a4.517,4.517,0,0,0,4.506,4.506h2.282a.524.524,0,0,1,0,1.048H15.554A5.558,5.558,0,0,1,10,26.713V20.285a14.858,14.858,0,0,1,2.271-7.906l3.318-5.3c.012-.012.012-.023.023-.023l.629-.885a.14.14,0,0,1,.058-.058A2.781,2.781,0,0,1,18.244,5.3h.128a2.716,2.716,0,0,1,2.585,2.527,2.774,2.774,0,0,1-.14,1.071.088.088,0,0,1-.023.047l-2,4.308.012.151c.093,1.013,1.234,1.479,1.979,1.479h13.67a2.55,2.55,0,1,1,0,5.1H27.745l.233.745a2.39,2.39,0,0,1,.116.757,2.6,2.6,0,0,1-.652,1.723.272.272,0,0,1-.082.082l-.338.349.291.4a2.564,2.564,0,0,1,.5,1.514,2.816,2.816,0,0,1-.652,1.77,3.429,3.429,0,0,1-.349.361l-.373.314.233.419a2.354,2.354,0,0,1,.314,1.188,2.527,2.527,0,0,1-2.573,2.643H23.344Z" transform="translate(-9.884 -5.169)" fill="#925300"/>
            <path id="Path_7422" data-name="Path 7422" d="M23.543,31.368H22.46a.64.64,0,1,1,0-1.281h1.083a1.4,1.4,0,0,0,.664-2.643.77.77,0,0,1-.466-.687c0-.384.268-.64.78-.734.14-.023.291-.047.314-.047l.116-.012.082-.047a1.659,1.659,0,0,0,.734-1.339,1.4,1.4,0,0,0-.571-1.118l-.093-.07-.221-.035c-.116-.023-.221-.035-.314-.058a.707.707,0,0,1-.617-.675c0-.07.023-.675.885-.722a1.355,1.355,0,0,0,1.211-1.386,1.405,1.405,0,0,0-1.06-1.351c-.023,0-.035-.012-.047-.012l-.082-.023H24.37a.64.64,0,1,1,0-1.281h9.2a1.4,1.4,0,0,0,0-2.795H19.9a3.024,3.024,0,0,1-3.144-2.666,1.683,1.683,0,0,1,.116-.652.088.088,0,0,1,.023-.047l1.945-4.215.012-.035a1.477,1.477,0,0,0,.058-.559,1.56,1.56,0,0,0-2.6-1.048l-.035.035-.594.827-3.307,5.3a13.781,13.781,0,0,0-2.1,7.289v6.427a4.393,4.393,0,0,0,4.39,4.39h2.282a.64.64,0,1,1,0,1.281H14.671A5.692,5.692,0,0,1,9,25.709V19.282a15.068,15.068,0,0,1,2.282-7.964L14.6,6.02c.012-.012.012-.023.023-.035l.629-.873c.023-.023.035-.047.07-.082a2.886,2.886,0,0,1,2.166-.85,2.84,2.84,0,0,1,2.7,2.631,2.8,2.8,0,0,1-.151,1.118c-.012.023-.012.035-.023.058l-1.979,4.3.012.128c.093.931,1.164,1.374,1.863,1.374H33.568a2.666,2.666,0,1,1,0,5.333H27.025l.186.594a2.608,2.608,0,0,1,.116.792,2.725,2.725,0,0,1-.687,1.8c-.023.035-.058.058-.082.093l-.268.279.233.314a2.664,2.664,0,0,1,.524,1.584,2.908,2.908,0,0,1-.687,1.84,2.256,2.256,0,0,1-.373.373l-.291.245.186.338a2.493,2.493,0,0,1,.338,1.234A2.621,2.621,0,0,1,23.543,31.368ZM22.46,30.32a.408.408,0,1,0,0,.815h1.083A2.411,2.411,0,0,0,26,28.609a2.313,2.313,0,0,0-.3-1.129l-.279-.5.442-.373a2.313,2.313,0,0,0,.338-.338,2.663,2.663,0,0,0,.629-1.688,2.494,2.494,0,0,0-.477-1.444L26,22.67l.408-.419a.507.507,0,0,0,.07-.082,2.459,2.459,0,0,0,.629-1.653,2.181,2.181,0,0,0-.116-.722l-.279-.9h6.858a2.434,2.434,0,1,0,0-4.867H19.9c-.78,0-1.991-.5-2.1-1.584l-.012-.186,2-4.355a.043.043,0,0,0,.012-.035,2.544,2.544,0,0,0,.14-1.025,2.613,2.613,0,0,0-2.48-2.422,2.649,2.649,0,0,0-1.991.78c-.012.012-.023.035-.047.047l-.629.885c0,.012-.012.012-.012.023L11.48,11.434a14.814,14.814,0,0,0-2.247,7.848v6.427a5.441,5.441,0,0,0,5.438,5.426h2.282a.408.408,0,1,0,0-.815H14.671A4.626,4.626,0,0,1,10.048,25.7V19.27a13.9,13.9,0,0,1,2.131-7.405l3.307-5.286.617-.862.047-.047a1.808,1.808,0,0,1,1.2-.454h.093a1.8,1.8,0,0,1,1.7,1.665,1.969,1.969,0,0,1-.07.64l-.012.058L17.1,11.8a.041.041,0,0,1-.012.023,1.683,1.683,0,0,0-.1.559A2.794,2.794,0,0,0,19.9,14.822h13.67a1.63,1.63,0,0,1,0,3.26H24.381a.408.408,0,1,0,0,.815h.524l.1.035c.012,0,.023.012.035.012a1.643,1.643,0,0,1,1.234,1.572,1.594,1.594,0,0,1-1.432,1.618c-.617.035-.664.384-.664.5s.047.361.431.454c.082.023.186.035.3.058l.279.047.14.1A1.611,1.611,0,0,1,26,24.6a1.883,1.883,0,0,1-.85,1.537l-.128.07-.163.023c-.023,0-.163.023-.291.047-.594.116-.594.4-.594.5a.547.547,0,0,0,.349.477,1.618,1.618,0,0,1,.862,1.374,1.579,1.579,0,0,1-1.642,1.712H22.46Z" transform="translate(-9 -4.177)" fill="#925300"/>
          </g>
          <g id="Group_17863" data-name="Group 17863" transform="translate(21.11 20.822)">
            <path id="Path_7423" data-name="Path 7423" d="M194.468,183.431a1.1,1.1,0,0,0-1.747,0c-.023.035-.582.78-1.153,1.688-1.141,1.816-1.269,2.632-1.269,3.1a3.3,3.3,0,0,0,6.59,0c0-.466-.128-1.281-1.269-3.1A16.385,16.385,0,0,0,194.468,183.431Z" transform="translate(-190.3 -183)" fill="#925300"/>
          </g>
          <g id="Group_17864" data-name="Group 17864" transform="translate(23.311 23.826)">
            <path id="Path_7424" data-name="Path 7424" d="M210.294,212.1A1.093,1.093,0,0,1,209.2,211a5.4,5.4,0,0,1,.943-1.944c.058-.082.1-.175.163-.256.058.081.1.163.163.256a5.405,5.405,0,0,1,.943,1.944A1.121,1.121,0,0,1,210.294,212.1Z" transform="translate(-209.2 -208.8)" fill="#925300"/>
          </g>
        </g>
      </g>
    </g>
  </g>
</svg>
