<svg xmlns="http://www.w3.org/2000/svg" width="66.286" height="55.861" viewBox="0 0 66.286 55.861">
  <g id="X_Ray_Folder_Icon" data-name="X Ray Folder Icon" transform="translate(-1638 -461.137)">
    <g id="Group_18205" data-name="Group 18205" transform="translate(1638 461.137)">
      <g id="folder_1_" data-name="folder (1)" transform="translate(0 0)">
        <path id="Path_7604" data-name="Path 7604" d="M29.166,41.887V39.478a2.651,2.651,0,0,0-2.651-2.652H2.651A2.651,2.651,0,0,0,0,39.478V55.084H66.286V46.306a2.651,2.651,0,0,0-2.651-2.652h-32.7A1.768,1.768,0,0,1,29.166,41.887Z" transform="translate(0 -36.827)" fill="#f6c358"/>
        <path id="Path_7605" data-name="Path 7605" d="M62.751,167.425H3.535A3.535,3.535,0,0,1,0,163.889v-34.7H29.265a2.651,2.651,0,0,0,1.959-.865l3.257-3.573a2.651,2.651,0,0,1,1.959-.865H66.286v40A3.535,3.535,0,0,1,62.751,167.425Z" transform="translate(0 -111.564)" fill="#fcd462"/>
      </g>
    </g>
    <g id="_1725908" data-name="1725908" transform="translate(1550.191 269.602)">
      <path id="Path_7606" data-name="Path 7606" d="M134.952,489.946c-.52.913-1,1.8-1.521,2.672a9.124,9.124,0,0,1-2,2.417,4.347,4.347,0,0,1-2.451,1.046,3.617,3.617,0,0,1-3-1.317,6.823,6.823,0,0,1-1.405-2.39.893.893,0,0,1,.514-1.162.924.924,0,0,1,1.173.5,10.705,10.705,0,0,0,.857,1.566,1.945,1.945,0,0,0,3.12.382,7.749,7.749,0,0,0,1.809-2.251c.6-1.046,1.162-2.113,1.743-3.17.1-.177.2-.349.31-.52a.91.91,0,0,1,1.671-.011c.409.691.786,1.394,1.167,2.1a18.1,18.1,0,0,0,1.914,3.065,3.832,3.832,0,0,0,1.693,1.289,1.642,1.642,0,0,0,1.615-.266,4.56,4.56,0,0,0,1.411-2.047,4.205,4.205,0,0,1,.171-.437.887.887,0,0,1,1.106-.426.864.864,0,0,1,.581,1.007,6.115,6.115,0,0,1-2.506,3.557,3.489,3.489,0,0,1-3.867-.1,6.914,6.914,0,0,1-2.285-2.362c-.586-.935-1.106-1.909-1.654-2.871A2.158,2.158,0,0,1,134.952,489.946Z" transform="translate(-13.916 -255.694)" fill="#925300"/>
      <path id="Path_7607" data-name="Path 7607" d="M192.383,218.425a1.974,1.974,0,0,0,.426.382c.514.26,1.046.487,1.577.725.116.05.249.072.365.122a.9.9,0,0,1,.542,1.034.849.849,0,0,1-.963.686,5.879,5.879,0,0,1-3.247-1.7,1.836,1.836,0,0,1-.293-2.091,1.793,1.793,0,0,1,1.776-1.084,9.978,9.978,0,0,1,2.545.47c.409.1.824.2,1.234.31a6.132,6.132,0,0,0,3.048-.238c.719-.188,1.449-.354,2.18-.492a2.934,2.934,0,0,1,.907-.017,1.874,1.874,0,0,1,1.25,3.02,3.951,3.951,0,0,1-1.173.985,13.474,13.474,0,0,1-1.953.819.881.881,0,0,1-1.156-.614.917.917,0,0,1,.636-1.123c.514-.188,1.029-.393,1.532-.62a2.572,2.572,0,0,0,.542-.376c.066-.055.088-.166.133-.254-.089-.028-.188-.089-.271-.072-.4.066-.8.144-1.189.238-.769.183-1.532.393-2.307.564a7.1,7.1,0,0,1-3.386-.238c-.669-.171-1.339-.337-2.014-.492a4.572,4.572,0,0,0-.675-.061C192.428,218.342,192.405,218.381,192.383,218.425Z" transform="translate(-76.337)" fill="#925300"/>
      <path id="Path_7608" data-name="Path 7608" d="M275.791,287.219a21.1,21.1,0,0,1-.824,5.51,7.341,7.341,0,0,1-.393.94,2.491,2.491,0,0,1-.387.564.912.912,0,0,1-1.516-.011,4.447,4.447,0,0,1-.631-1.09,12.724,12.724,0,0,1-.824-3.679c-.088-1.035-.105-2.074-.116-3.115a2.92,2.92,0,0,1,.21-.963,2.333,2.333,0,0,1,3.778-.725,2.712,2.712,0,0,1,.647,1.61C275.775,286.633,275.78,287,275.791,287.219Zm-2.418,4.221a.27.27,0,0,0,.066-.006,1.435,1.435,0,0,0,.044-.144,17.632,17.632,0,0,0,.476-4.569,3,3,0,0,0-.1-.625c-.055-.232-.232-.277-.448-.277s-.393.055-.443.282a2.8,2.8,0,0,0-.094.736c.061,1.084.127,2.163.232,3.242A12.863,12.863,0,0,0,273.374,291.44Z" transform="translate(-152.393 -63.749)" fill="#925300"/>
      <path id="Path_7609" data-name="Path 7609" d="M348.434,410.727a18.665,18.665,0,0,1-4.155-.537.9.9,0,0,1,.371-1.765c.824.138,1.649.3,2.478.415a7.314,7.314,0,0,0,2.96-.133,3.221,3.221,0,0,0,.365-.133,1.3,1.3,0,0,0,.857-1.344,1.463,1.463,0,0,1,.116-.636.845.845,0,0,1,.979-.437.91.91,0,0,1,.708.846,3.118,3.118,0,0,1-2,3.264A7.26,7.26,0,0,1,348.434,410.727Z" transform="translate(-220.859 -179.147)" fill="#925300"/>
      <path id="Path_7610" data-name="Path 7610" d="M114.392,410.6a6.709,6.709,0,0,1-2.727-.526,3.09,3.09,0,0,1-1.864-3.236.907.907,0,0,1,1.809,0,.419.419,0,0,1,.006.083c-.122,1.051.476,1.494,1.405,1.715a8.522,8.522,0,0,0,3.242.022c.636-.094,1.267-.227,1.9-.349a.924.924,0,0,1,1.156.664.912.912,0,0,1-.774,1.106A18.753,18.753,0,0,1,114.392,410.6Z" transform="translate(0 -179.021)" fill="#925300"/>
      <path id="Path_7611" data-name="Path 7611" d="M361.646,487.275a17.615,17.615,0,0,1-4.049-.752.886.886,0,0,1-.62-1.106.9.9,0,0,1,1.123-.636c.725.171,1.449.36,2.18.5a5.923,5.923,0,0,0,2.335.055,1.278,1.278,0,0,0,1.228-1.35.9.9,0,0,1,1.294-.752.882.882,0,0,1,.5.88,2.987,2.987,0,0,1-2.467,2.954C362.675,487.181,362.155,487.209,361.646,487.275Z" transform="translate(-233.485 -251.889)" fill="#925300"/>
      <path id="Path_7612" data-name="Path 7612" d="M115.668,487.36a4.386,4.386,0,0,1-2.539-.7,2.88,2.88,0,0,1-1.245-2.572.868.868,0,0,1,.824-.819.908.908,0,0,1,.957.741.188.188,0,0,1,.006.055c.127.974.487,1.317,1.46,1.433a8.881,8.881,0,0,0,2.96-.254c.443-.094.874-.227,1.311-.337a.907.907,0,0,1,1.145.642.9.9,0,0,1-.636,1.1A15.165,15.165,0,0,1,115.668,487.36Z" transform="translate(-1.984 -252.018)" fill="#925300"/>
      <path id="Path_7613" data-name="Path 7613" d="M126.391,336.419c.5-.028,1.012-.066,1.516-.083a.9.9,0,0,1,.985.8.886.886,0,0,1-.819,1,11.86,11.86,0,0,1-4.708-.3,3.579,3.579,0,0,1-2.246-1.671,2.714,2.714,0,0,1-.116-2.3.9.9,0,0,1,1.715.559,1.072,1.072,0,0,0,.68,1.471,6.351,6.351,0,0,0,2.716.509h.277Z" transform="translate(-10.411 -110.321)" fill="#925300"/>
      <path id="Path_7614" data-name="Path 7614" d="M361.272,338.362c-.52-.039-1.117-.05-1.709-.127a.9.9,0,0,1,.227-1.787c.752.028,1.51.066,2.263.055a5.668,5.668,0,0,0,2.025-.382,3.377,3.377,0,0,0,.349-.166,1.033,1.033,0,0,0,.581-1.377.9.9,0,0,1,1.007-1.167.878.878,0,0,1,.725.636,2.774,2.774,0,0,1-1.112,3.3,6.212,6.212,0,0,1-2.915.935C362.257,338.323,361.8,338.329,361.272,338.362Z" transform="translate(-235.246 -110.438)" fill="#925300"/>
      <path id="Path_7615" data-name="Path 7615" d="M154.45,269.4a9.726,9.726,0,0,1-3.059-.542A2.631,2.631,0,0,1,149.582,267a2.67,2.67,0,0,1,.194-1.671,7.012,7.012,0,0,1,.4-.786.9.9,0,0,1,1.294-.376.918.918,0,0,1,.26,1.306,5.531,5.531,0,0,0-.282.537c-.232.559-.127.824.42,1.084a5.726,5.726,0,0,0,2.041.443c.376.033.752.039,1.134.05a.9.9,0,0,1,.033,1.809C154.87,269.416,154.66,269.4,154.45,269.4Z" transform="translate(-37.541 -44.905)" fill="#925300"/>
      <path id="Path_7616" data-name="Path 7616" d="M361.645,269.517c-.271,0-.476.011-.675,0a.907.907,0,0,1-.874-.924.927.927,0,0,1,.913-.885c.841-.072,1.687-.149,2.517-.277a3.156,3.156,0,0,0,.907-.376.475.475,0,0,0,.249-.609,5.522,5.522,0,0,0-.36-.83.924.924,0,0,1,.249-1.328.914.914,0,0,1,1.311.4,3.671,3.671,0,0,1,.636,1.969,2.282,2.282,0,0,1-1.012,1.87,5.382,5.382,0,0,1-2.423.852C362.591,269.445,362.082,269.473,361.645,269.517Z" transform="translate(-236.465 -45.018)" fill="#925300"/>
    </g>
  </g>
</svg>
